{
	"asset":{
		"generator":"Khronos glTF Blender I/O v4.3.47",
		"version":"2.0"
	},
	"extensionsUsed":[
		"KHR_materials_specular"
	],
	"scene":0,
	"scenes":[
		{
			"name":"Scene",
			"nodes":[
				0,
				1
			]
		}
	],
	"nodes":[
		{
			"mesh":0,
			"name":"anneau",
			"scale":[
				0.07728618383407593,
				0.07728618383407593,
				0.07728618383407593
			],
			"translation":[
				0.002162336837500334,
				2.2608389854431152,
				0.00026139384135603905
			]
		},
		{
			"mesh":1,
			"name":"deco",
			"scale":[
				0.07728618383407593,
				0.07728618383407593,
				0.07728618383407593
			],
			"translation":[
				-0.010088538751006126,
				3.364217758178711,
				-0.001219386700540781
			]
		}
	],
	"materials":[
		{
			"doubleSided":true,
			"extensions":{
				"KHR_materials_specular":{
					"specularColorFactor":[
						2.0,
						2.0,
						2.0
					]
				}
			},
			"name":"metal",
			"pbrMetallicRoughness":{
				"baseColorFactor":[
					0.31985926628112793,
					0.31985926628112793,
					0.31985926628112793,
					1
				],
				"metallicFactor":0.8500000238418579,
				"roughnessFactor":0.22045458853244781
			}
		},
		{
			"doubleSided":true,
			"name":"orRose",
			"pbrMetallicRoughness":{
				"baseColorFactor":[
					0.8012669086456299,
					0.45821502804756165,
					0.3280717134475708,
					1
				],
				"roughnessFactor":0.2199999988079071
			}
		}
	],
	"meshes":[
		{
			"name":"anneau",
			"primitives":[
				{
					"attributes":{
						"POSITION":0,
						"NORMAL":1,
						"TEXCOORD_0":2
					},
					"indices":3,
					"material":0
				}
			]
		},
		{
			"name":"deco",
			"primitives":[
				{
					"attributes":{
						"POSITION":4,
						"NORMAL":5,
						"TEXCOORD_0":6
					},
					"indices":7,
					"material":1
				}
			]
		}
	],
	"accessors":[
		{
			"bufferView":0,
			"componentType":5126,
			"count":4368,
			"max":[
				10.800004959106445,
				10.794878959655762,
				1.5000001192092896
			],
			"min":[
				-10.799995422363281,
				-10.794878005981445,
				-1.4999998807907104
			],
			"type":"VEC3"
		},
		{
			"bufferView":1,
			"componentType":5126,
			"count":4368,
			"type":"VEC3"
		},
		{
			"bufferView":2,
			"componentType":5126,
			"count":4368,
			"type":"VEC2"
		},
		{
			"bufferView":3,
			"componentType":5123,
			"count":21384,
			"type":"SCALAR"
		},
		{
			"bufferView":4,
			"componentType":5126,
			"count":28813,
			"max":[
				8.569229125976562,
				2.777388334274292,
				8.794876098632812
			],
			"min":[
				-8.188929557800293,
				-4.727015972137451,
				-6.4941935539245605
			],
			"type":"VEC3"
		},
		{
			"bufferView":5,
			"componentType":5126,
			"count":28813,
			"type":"VEC3"
		},
		{
			"bufferView":6,
			"componentType":5126,
			"count":28813,
			"type":"VEC2"
		},
		{
			"bufferView":7,
			"componentType":5123,
			"count":145257,
			"type":"SCALAR"
		}
	],
	"bufferViews":[
		{
			"buffer":0,
			"byteLength":52416,
			"byteOffset":0,
			"target":34962
		},
		{
			"buffer":0,
			"byteLength":52416,
			"byteOffset":52416,
			"target":34962
		},
		{
			"buffer":0,
			"byteLength":34944,
			"byteOffset":104832,
			"target":34962
		},
		{
			"buffer":0,
			"byteLength":42768,
			"byteOffset":139776,
			"target":34963
		},
		{
			"buffer":0,
			"byteLength":345756,
			"byteOffset":182544,
			"target":34962
		},
		{
			"buffer":0,
			"byteLength":345756,
			"byteOffset":528300,
			"target":34962
		},
		{
			"buffer":0,
			"byteLength":230504,
			"byteOffset":874056,
			"target":34962
		},
		{
			"buffer":0,
			"byteLength":290514,
			"byteOffset":1104560,
			"target":34963
		}
	],
	"buffers":[
		{
			"byteLength":1395076,
			"uri":"data:application/octet-stream;base64,"
		}
	]
}
